<svg id="Layer_1" data-name="Layer 1" xmlns="http://www.w3.org/2000/svg" viewBox="0 0 512 512"><title>hand-peace-outline</title><path d="M317.55,450.4V496q-41.89,16-75.36,16-42.23,0-76.34-16v-35.2q-11.37-11.95-25.66-28A237.92,237.92,0,0,1,121,338.5V323.42q-4.55-13.2-4.55-21.37,0-14.45,6.33-21.53t18.68-7.07q4.54,0,14.94,2.83-3.89-13.2-3.89-20.44,0-17.27,8.6-25.77t25.51-8.48q14.93,0,28.26,17.27c-.21-5.3-.33-9.56-.33-12.74q0-4.14.12-10.51L178.15,83.29q-11-39.28-11-50.29,0-16.65,9.07-24.83T203.15,0Q231,0,244.65,55l36,143L317.41,89.58q21.14-62.23,47.51-62.24a30.32,30.32,0,0,1,21.65,8.5,27.56,27.56,0,0,1,8.95,20.75q0,12.9-11,53.16L352,229.6q2.59,22,2.6,62.1l.34,13.49q10.2,27,12.17,48.4Q351.11,398.54,317.55,450.4ZM176.91,327.5l-8.45-18.85q-9.1-20.74-21.44-20.74c-4.76,0-8.4,1.15-10.88,3.45s-3.74,5.87-3.74,10.69q0,6,7.48,23.25l12.34,28.29Q162,375.92,174,375.91c4.55,0,8-1.37,10.23-4.09s3.41-6.7,3.41-11.95Q187.62,349.82,176.91,327.5Zm126,116.61q23.71-32.68,43.2-81.09,1.62-4.07,4.87-11.63-2.27-7.84-3.25-11.6-14-52.36-50.67-97.19l-65.94-8.5q0,43.76,57.49,46.58-.66,10.36-.64,17A241.35,241.35,0,0,0,292.54,342H276.63a169.07,169.07,0,0,1-4.55-39.29v-6.6q-22.74-4.4-38-15.4l12.67,30.17q6.17,15.4,6.17,24.83,0,17.3-8.12,25.94t-24.68,8.64q-8.46,0-19.82-6.91Q198.35,377.8,191.2,385T172,392.26q-15,0-26-17.61l-7.15-11.31q4.22,30.49,11,53.12c.65,1.88,1.51,4.5,2.6,7.85l29.88,33v28Q215.23,496,244.15,496q28.58,0,58.79-10.68Zm-80.3-147.57-13.38-32Q197.83,237,185.76,237q-8.5,0-12.9,4.86t-4.4,14.57q0,12.86,7.83,30.72L189,316.92q16.32,37.31,31.66,37.31,8.16,0,12.24-4.23T237,337.61Q237,327.89,222.64,296.54ZM267,207.44,228.76,56.26q-10.36-41.8-26.89-41.8-9.41,0-14.1,4.71t-4.69,14.15q0,5.35,2.59,14.77,1,3.78,2.59,10.37,2.27,9.11,3.56,13.52l40.11,146.46,73,10.2A219,219,0,0,1,338,275V225.44l31.76-120.75q9.82-36.79,9.82-48.43,0-6.91-3.59-10.21t-11.09-3.31a16,16,0,0,0-14.18,7.86q-5.05,7.85-16.14,39.91L292.54,210Z" fill="#000"/></svg>